<svg xmlns="http://www.w3.org/2000/svg" version="1.1" xmlns:xlink="http://www.w3.org/1999/xlink" xmlns:svgjs="http://svgjs.dev/svgjs" width="167.06" height="232.87"><svg version="1.1" id="SvgjsSvg1018" xmlns="http://www.w3.org/2000/svg" xmlns:xlink="http://www.w3.org/1999/xlink" x="0px" y="0px" viewBox="0 0 167.06 232.87" style="enable-background:new 0 0 167.06 232.87;" xml:space="preserve">
<style type="text/css">
	.st0{fill:#07A85F;}
</style>
<g>
	<path class="st0" d="M150.08,213.36c0-31.77,0-63.53,0-95.3c0.01,0,0.03,0,0.04,0c0-12.14,0.01-24.28,0-36.43
		c-0.01-20.05-0.02-40.1-0.06-60.15c-0.01-3.41-0.06-3.45-3.44-3.46c-11.72-0.03-23.44,0.04-35.15-0.09
		c-2.52-0.03-4.3,0.82-5.88,2.63c-2.31,2.66-4.7,5.27-7.1,7.85c-10,10.75-20.07,21.43-30,32.24c-4,4.36-3.64,5.95,1.44,9.09
		c0.6,0.37,1.22,0.71,1.85,1.02c8.72,4.22,17.41,8.48,26.16,12.63c13.74,6.53,25.72,15.1,34.09,28.18
		c11.74,18.34,9.18,41.48-6.53,56.48c-2.84,2.71-5.94,5.16-9.29,7.26c-12.33,7.71-25.91,11.59-40.27,13.08
		c-6.05,0.63-12.13,0.46-18.2,0.47c-10.87,0-21.74,0-32.61,0.02c-4.86,0.01-4.2-0.3-4.23,4.39c-0.05,6.35-0.07,12.71-0.11,19.06
		c-0.01,1.13,0.09,2.27,0,3.39c-0.18,2.22,0.79,3.14,2.97,2.9c0.42-0.05,0.85-0.01,1.27-0.01c40.24-0.01,80.48-0.01,120.71-0.02
		c0.71,0,1.41-0.04,2.12,0c1.64,0.1,2.3-0.68,2.21-2.28C150.02,215.34,150.08,214.34,150.08,213.36z"></path>
	<path class="st0" d="M28.65,133.16c1.12,0.11,2.26,0.11,3.38,0.12c4.66,0.01,9.31,0.01,13.97,0.01c0-0.01,0-0.02,0-0.03
		c4.52,0,9.03,0.02,13.55-0.01c5.99-0.04,11.75-1.34,17.34-3.41c3.88-1.44,7.39-3.51,10.16-6.66c2.71-3.08,2.99-6.62,0.82-10.12
		c-1.59-2.57-3.81-4.5-6.25-6.23c-9.98-7.04-20.97-12.01-32.28-16.5c-4.29-1.7-7.18-0.61-10.17,2.21
		c-3.81,3.59-7.31,7.45-10.69,11.43c-7.55,8.91-7.55,8.92-7.68,20.53C20.73,131.2,21.87,132.47,28.65,133.16z"></path>
	<path class="st0" d="M33.79,45.17c1.48,2.41,3.33,4.56,5.46,6.42c3.79,3.31,5.65,3.26,9.47,0.08c8.69-7.23,16.51-15.35,24.2-23.59
		c2.84-3.05,5.55-6.23,8.32-9.35c-0.18-0.26-0.35-0.53-0.53-0.79c-17.19,0-34.38,0-51.58,0c-0.28,0-0.56,0.02-0.85,0.02
		c-1.18,0-1.85,0.49-1.83,1.75c0.09,5.34-0.18,10.69,2.18,15.77C30.19,38.81,31.88,42.05,33.79,45.17z"></path>
</g>
</svg><style>@media (prefers-color-scheme: light) { :root { filter: none; } }
@media (prefers-color-scheme: dark) { :root { filter: none; } }
</style></svg>